<?xml version="1.0" encoding="UTF-8"?>
<!-- Created with Inkscape (http://www.inkscape.org/) -->
<svg width="210mm" height="215mm" version="1.1" viewBox="0 0 210 215" xmlns="http://www.w3.org/2000/svg">
 <g transform="translate(0 -20)">
  <g transform="matrix(1.1554 0 0 1.1554 -16.722 -29.833)">
   <ellipse transform="matrix(.98851 .15117 -.14467 .98948 0 0)" cx="124.23" cy="119.13" rx="89.966" ry="91.92" fill="none" stroke="#010101" stroke-width=".47644"/>
   <g transform="matrix(.26194 -.03732 .03732 .26194 -145.48 2.3608)" fill="#2b0000" stroke-width="64.617" aria-label="T">
    <path d="m927.17 585.78q-30.452 0-54.137 2.8196-23.121 2.8196-41.167 11.842-17.482 9.0228-31.58 26.504-14.098 16.918-25.941 45.678-1.1278 2.2557-2.8196 1.6918-1.1278-1.1278-2.2557-4.5114 5.0753-15.226 11.842-29.324 6.7671-14.662 15.226-26.504 9.0228-12.406 19.737-20.865 10.715-8.4589 23.685-10.715 14.098-2.8196 31.58-2.2557 17.482 0 34.963 0 16.354 0 32.708 0.56392 16.354 0 32.708 0h24.249q45.114-0.56392 72.182-15.226 8.4589-4.5114 16.918-13.534 8.4588-9.0228 8.4588-19.737 0-2.8196-0.5639-3.9475-0.5639-0.56392-0.5639-1.6918 0-2.2557 1.6918-2.2557 0.5639 0 1.6917 1.1278 6.7671 7.331 10.151 14.662 1.6918 2.2557 1.6918 6.7671 0 3.3836-2.2557 7.895-9.5868 15.79-28.76 22.557-18.61 6.7671-45.678 7.895-9.5868 0.56393-20.301 0.56393-10.715-0.56393-19.173 0-7.895 0-11.842 5.6392-31.58 47.934-58.648 93.612-26.504 45.678-48.498 85.717-5.0753 9.5867-8.4589 18.046-2.8196 7.895-3.3836 14.662 0 4.5114 1.1278 9.0228 1.1278 3.9475 5.0753 7.331 3.9475 2.8196 11.278 5.0753 7.895 1.6918 20.301 1.6918 2.8196 0 6.7671 0 3.9475 0 6.7671-0.56393 1.6918 2.2557-1.6918 4.5114-9.5867 1.1278-21.429 1.1278-11.842 0.56393-21.993 0.56393-8.4589 0-16.354-0.56393-7.331 0-13.534-2.2557-5.6392-1.6918-9.5867-5.6392-3.3836-3.9475-3.3836-11.278 0-4.5114 2.2557-10.151t6.2032-11.842q15.226-24.813 30.452-50.753 15.79-25.941 30.452-51.317 15.226-25.941 29.324-50.189 14.098-24.813 25.941-47.37 2.8196-5.0753-2.8196-5.0753z"/>
   </g>
   <g transform="matrix(1.0111 -.18997 .31316 .93015 0 0)" fill="#2b0000" stroke-width="19.049" aria-label="S">
    <path d="m70.311 107.06q-0.66497 1.6624-1.6624 4.3223-0.83122 2.6599-1.3299 4.4886-0.66497 0.33248-1.1637-0.49873 0.49873-0.99746 0.49873-2.4936 0-2.9924-2.9924-5.6523-2.8261-2.6599-9.1434-2.6599-6.6497 0-10.806 3.9898-4.1561 3.8236-4.1561 10.307 0 4.9873 2.3274 9.3096t5.1535 7.9797q2.1612 2.8261 3.4911 4.821 1.4962 1.8287 2.3274 3.4911 0.83122 1.4962 1.1637 2.9924 0.33249 1.3299 0.33249 3.3249 0 3.4911-1.6624 6.816-1.4962 3.3249-4.1561 6.151-2.4936 2.8261-5.6523 5.1535-2.9924 2.1612-5.9847 3.4911-7.4809 3.3249-16.624 3.3249-3.8236 0-7.6472-0.66498-3.6573-0.66497-6.816-2.1612-0.83122-0.49872-1.4962-0.83121-0.66497-0.49873-0.83122-0.99746 0.66497-2.8261 1.4962-6.3172 0.99746-3.6574 1.6624-5.9848 0-0.33249 0.49873-0.33249t0.49873 0.83122q-0.49873 1.4962-0.49873 2.9924 0 4.6548 3.8236 8.3122 3.8236 3.4911 11.803 3.4911 2.9924 0 5.9847-0.49873 3.1586-0.66498 5.6523-1.8287 5.1535-2.3274 8.6446-6.4835 3.6573-4.3223 3.6573-10.141 0-2.8261-1.3299-5.6523-1.3299-2.9924-5.1535-7.8134-3.3249-4.3223-5.1535-7.6472-1.6624-3.3249-1.6624-7.6472 0-4.3223 1.8287-8.6446 1.9949-4.3223 4.821-7.6472 0.99746-1.1637 2.6599-2.6599 1.8287-1.6624 4.1561-2.9924 2.4936-1.33 5.6523-2.3274 3.3249-0.99746 7.3147-0.99746 2.6599 0 5.1535 0.83121 2.4936 0.66498 4.4886 2.8261 0.83122 1.1637 0.83122 2.3274z"/>
   </g>
   <ellipse cx="105.74" cy="136.84" rx="72.199" ry="73.84" fill="none" stroke="#010101" stroke-width=".48232"/>
   <g transform="rotate(-79.134 103.55 135.07)" fill="#2b0000" stroke-width=".25268" aria-label="Samantha Thibault">
    <path d="m180.43 137.81-6e-3 0.12471q-0.61834 0.0944-1.0473 0.26642-0.42954 0.18332-0.71338 0.40794t-0.44411 0.47807q-0.16026 0.25346-0.24117 0.51083-0.0815 0.26871-0.10457 0.50622-0.0237 0.24884-0.0343 0.46423-0.0297 0.60084 0.13263 0.99524 0.16233 0.39441 0.4232 0.63459 0.2722 0.24073 0.58514 0.34712 0.32427 0.10694 0.59635 0.12039 0.39678 0.0196 0.68747-0.11375 0.2907-0.13337 0.49463-0.35057 0.21526-0.21664 0.35341-0.48255 0.13759-0.25458 0.21738-0.48928l0.46121-1.2841q0.32881-0.90425 0.81714-1.3574 0.48777-0.44182 1.27-0.40315 0.51014 0.0252 0.93196 0.22789 0.43316 0.20324 0.73433 0.54769 0.30117 0.34444 0.46014 0.80687 0.15841 0.47376 0.13151 1.0179-0.0196 0.39677-0.10052 0.65415-0.0815 0.26871-0.18169 0.45695-0.0889 0.1888-0.16418 0.33281-0.0759 0.15535-0.0837 0.31406-7e-3 0.14737 0.0245 0.1944 0.0425 0.0589 0.19677 0.15746l-8e-3 0.15871-2.0519-0.10143 7e-3 -0.13604q0.41148-0.0478 0.79398-0.1994 0.39329-0.13965 0.68959-0.38638 0.30764-0.24617 0.49618-0.61187 0.19931-0.3538 0.22341-0.84127 0.0134-0.27207-0.0497-0.60475-0.0518-0.33212-0.21914-0.6245-0.16737-0.29238-0.4526-0.49967-0.28578-0.19595-0.73924-0.21836-0.36276-0.0179-0.63079 0.11655-0.25668 0.13505-0.44927 0.35281-0.18182 0.22966-0.32053 0.50691-0.12793 0.28914-0.23319 0.5794l-0.4986 1.3504q-0.0787 0.21203-0.20828 0.53519-0.12961 0.32315-0.37147 0.61803-0.24242 0.30621-0.62717 0.50311-0.38531 0.20824-0.96347 0.17966-0.53282-0.0263-1.0102-0.25449-0.4666-0.21626-0.82221-0.60885-0.34428-0.39204-0.54467-0.93606-0.18905-0.54346-0.15599-1.2123 0.0118-0.23807 0.0321-0.41889 9e-3 -0.18138 0.0395-0.33897t0.0724-0.31462q0.0305-0.15759 0.0967-0.34751 0.0792-0.22337 0.18281-0.47962 0.10358-0.25626 0.11311-0.44898 8e-3 -0.17004-0.0563-0.24142-0.0652-0.06-0.17634-0.111l8e-3 -0.17005z"/>
    <path d="m179.91 148.18 3e-3 -0.0225q-0.14314-0.0424-0.24191-0.41093l-0.22262-0.88941q-0.0972-0.37979-0.34113-0.60772-0.23266-0.22639-0.62629-0.27995-0.1687-0.023-0.35324-0.0137-0.18454 9e-3 -0.34299 0.0793-0.1472 0.0716-0.2586 0.21682-0.11293 0.15645-0.14813 0.41513-0.0505 0.37113 0.0763 0.61749 0.12531 0.25761 0.34619 0.40221 0.21934 0.15586 0.48467 0.22633 0.27504 0.0832 0.49998 0.11385zm-2.8995 1.61q-0.0926-0.16151-0.14375-0.37466-0.0624-0.21469-0.0226-0.5071 0.0735-0.53984 0.33206-0.75666 0.26832-0.20404 0.69669-0.23739l3e-3 -0.0225q-0.0951-0.0588-0.24184-0.15891-0.13549-0.0986-0.25874-0.28722-0.11354-0.17582-0.16678-0.45798-0.0645-0.28369-8e-3 -0.69982 0.0643-0.47236 0.21501-0.73822 0.13948-0.26739 0.31836-0.40342 0.17887-0.13603 0.37772-0.16624 0.20856-0.0174 0.37726 6e-3 0.39363 0.0536 0.60839 0.24316 0.21475 0.18959 0.31604 0.45538 0.11101 0.27857 0.15966 0.59447 0.0471 0.32715 0.10549 0.65583 0.0732 0.38797 0.13105 0.6364 0.0563 0.25967 0.16165 0.41146 0.1166 0.15333 0.30167 0.22433 0.19478 0.0838 0.53218 0.12969 0.26992 0.0367 0.4882 0.0321 0.21828-5e-3 0.37673-0.0747 0.16969-0.0686 0.27138-0.22654 0.10168-0.15798 0.13994-0.43915 0.0505-0.37114-0.0508-0.63693-0.0916-0.25301-0.38399-0.2928-0.19119-0.026-0.38697-0.0183-0.18454 9e-3 -0.27451-3e-3 -0.15746-0.0214-0.25462-0.14919-0.0859-0.12624-0.0568-0.33993 0.0505-0.37114 0.19771-0.44275 0.1472-0.0716 0.36089-0.0425 0.24742 0.0337 0.45705 0.17674 0.20963 0.14308 0.34925 0.37972 0.14934 0.24942 0.20618 0.58935 0.0553 0.35117-3e-3 0.77854-0.0704 0.51735-0.2528 0.84763-0.17115 0.33181-0.42516 0.51489-0.24277 0.18461-0.53618 0.23632-0.28216 0.0533-0.58582 0.0119l-2.8004-0.38107q-0.32615-0.0444-0.45239 0.0415t-0.15226 0.27711q-0.0168 0.12371 0.01 0.26479 0.0266 0.14108 0.0998 0.27704z"/>
    <path d="m177.09 150.1-0.20562 0.84944 4.4237 1.0708 0.20562-0.84944 0.15445 0.0374-0.42993 1.7761-1.1583-0.28039-5e-3 0.0221q0.60582 0.39188 0.81056 0.89689 0.20208 0.51604 0.0525 1.1338-0.13352 0.55159-0.47769 0.91205-0.34684 0.37148-0.94151 0.36767l-5e-3 0.0221q0.17988 0.12529 0.33538 0.30306 0.15549 0.17778 0.25084 0.41107 0.10637 0.23595 0.13054 0.52208 0.0215 0.29715-0.0613 0.63913-0.38987 1.6106-2.0336 1.2128l-3.0558-0.7397-0.20562 0.84945-0.15444-0.0374 0.64089-2.6476 0.15444 0.0374-0.20562 0.84944 3.7508 0.90792q0.37508 0.0908 0.63542-0.0681 0.25767-0.14783 0.34312-0.50085 0.0668-0.27579 0.0232-0.57829-0.0325-0.29982-0.18872-0.57119-0.15619-0.27137-0.45243-0.4949-0.29891-0.21249-0.74017-0.3193l-2.8131-0.68095-0.20562 0.84944-0.15444-0.0374 0.64089-2.6476 0.15444 0.0374-0.20562 0.84944 3.5963 0.87054q0.48539 0.11749 0.76512-0.025 0.27974-0.14249 0.35985-0.47344 0.0561-0.23167 1e-3 -0.53684-0.0436-0.30249-0.23854-0.60661-0.18662-0.29041-0.54371-0.55202-0.35975-0.25058-0.9334-0.38944l-2.449-0.59282-0.20562 0.84944-0.15444-0.0374 0.64089-2.6476z"/>
    <path d="m176.03 163.58 8e-3 -0.0214q-0.13151-0.0707-0.15314-0.45158l-0.0368-0.91611q-0.0178-0.39163-0.21021-0.66445-0.18167-0.26904-0.55614-0.40165-0.16049-0.0568-0.34305-0.0854-0.18255-0.0285-0.35195 8e-3 -0.1587 0.0401-0.29734 0.15961-0.14243 0.13017-0.22958 0.37625-0.12503 0.35308-0.051 0.62011 0.0702 0.27773 0.25701 0.46429 0.18301 0.19726 0.42842 0.32029 0.25233 0.13752 0.46631 0.2133zm-3.1667 0.98575q-0.0577-0.17698-0.0644-0.39609-0.0174-0.22289 0.0811-0.50107 0.18187-0.51357 0.47921-0.67317 0.30425-0.14512 0.73044-0.0905l8e-3 -0.0214q-0.0811-0.0769-0.2044-0.20483-0.11257-0.12415-0.19482-0.3339-0.0753-0.19526-0.07-0.48235-5e-3 -0.29088 0.13484-0.68675 0.15913-0.44937 0.36085-0.67896 0.19101-0.23338 0.39385-0.33012 0.20283-0.0968 0.40366-0.0858 0.20775 0.0254 0.36823 0.0822 0.37448 0.13261 0.54612 0.36197 0.17163 0.22936 0.21667 0.51021 0.0519 0.29533 0.0352 0.61452-0.0205 0.32989-0.0303 0.66357-7e-3 0.39475-1e-3 0.64975 2e-3 0.26569 0.0745 0.43576 0.0829 0.17386 0.24966 0.28107 0.17364 0.1217 0.49461 0.23537 0.25678 0.0909 0.47144 0.13082 0.21465 0.0399 0.38405 4e-3 0.1801-0.0325 0.31183-0.16652 0.13173-0.13396 0.22645-0.40144 0.12504-0.35308 0.08-0.63393-0.0381-0.26636-0.3163-0.36487-0.18189-0.0644-0.37514-0.0967-0.18255-0.0285-0.26815-0.0588-0.14979-0.053-0.21889-0.19793-0.0584-0.14109 0.0136-0.34438 0.12503-0.35307 0.28373-0.3932 0.15871-0.0401 0.36199 0.0319 0.23538 0.0834 0.41148 0.26613 0.17609 0.18277 0.26459 0.44289 0.0954 0.27461 0.0818 0.61899-0.0174 0.35507-0.16135 0.76164-0.17429 0.49217-0.42014 0.77838-0.23515 0.28999-0.52112 0.4175-0.27528 0.1313-0.57307 0.12217-0.28709-5e-3 -0.57597-0.10765l-2.6641-0.94345q-0.31027-0.10988-0.45137-0.0515-0.14109 0.0584-0.2055 0.24029-0.0417 0.11769-0.0443 0.26124-3e-3 0.14354 0.0412 0.29155z"/>
    <path d="m172.79 164.89-0.35935 0.79668 4.1489 1.8714 0.35936-0.79668 0.14485 0.0653-0.75138 1.6658-1.1071-0.49937-9e-3 0.0207q0.1065 0.12275 0.26209 0.3299 0.15093 0.21749 0.25417 0.51309 0.10325 0.2956 0.0977 0.66667 5e-3 0.37573-0.19583 0.82062-0.30802 0.68287-0.83045 0.95773-0.5271 0.28521-1.2514-0.0415l-3.0212-1.3628-0.35936 0.79668-0.14485-0.0653 1.1201-2.4832 0.14485 0.0653-0.35936 0.79668 3.3419 1.5074q0.40352 0.18201 0.75085 0.1021 0.34267-0.0696 0.52468-0.47308 0.14934-0.33108 0.13983-0.69647-0.01-0.36538-0.1655-0.70968-0.15599-0.34429-0.4471-0.63747-0.29577-0.28283-0.70963-0.46951l-2.3383-1.0547-0.35935 0.79668-0.14485-0.0653 1.1201-2.4832z"/>
    <path d="m174.05 173.36-0.41585 0.76869 1.2878 0.6967q-0.0732 0.0637-0.13093 0.12274-0.0578 0.0591-0.14958 0.22879-0.081 0.14975-0.11047 0.27576-0.0195 0.13142 6e-3 0.27446l-1.3677-0.7399-0.7669 1.4176-0.13976-0.0756 0.7669-1.4176-3.2645-1.766q-0.27953-0.15122-0.48622-0.19852-0.20212-0.0319-0.35056 4e-3 -0.13845 0.0412-0.22241 0.12487-0.0893 0.0936-0.14336 0.19344-0.18903 0.34941-0.0529 0.69407 0.14075 0.36004 0.43778 0.59817l-0.12552 0.11276q-0.11358-0.10016-0.2409-0.24647-0.12733-0.14631-0.20686-0.3571-0.075-0.19541-0.0568-0.44368 8e-3 -0.25367 0.1702-0.55316 0.40506-0.74873 0.85659-0.8916 0.44613-0.13289 0.97523 0.15335l3.1746 1.7174 0.41586-0.76869z"/>
    <path d="m168.09 174.55-0.47025 0.73668 6.6301 4.2322 0.47025-0.73668 0.13394 0.0855-0.99546 1.5595-3.7599-2.4001-0.0122 0.0191q0.0938 0.12723 0.20233 0.35807 0.11806 0.23695 0.15857 0.53211 0.044 0.31084-0.0183 0.66158-0.0588 0.36641-0.30923 0.75867-0.40307 0.63144-0.95961 0.82827-0.56265 0.2064-1.2324-0.2211l-2.7936-1.7833-0.47024 0.73668-0.13394-0.0855 1.4657-2.2961 0.13394 0.0855-0.47025 0.73668 3.0902 1.9726q0.37313 0.23817 0.72834 0.20907 0.34911-0.0195 0.58729-0.39265 0.19543-0.30616 0.23859-0.66911 0.0432-0.36295-0.0617-0.7261-0.10483-0.36316-0.35072-0.69518-0.252-0.32245-0.63469-0.56673l-2.1622-1.3802-0.47024 0.73668-0.13395-0.0855 1.4657-2.2962z"/>
    <path d="m164.48 184.48 0.0138-0.0181q-0.10353-0.10756-7e-3 -0.47679l0.24571-0.88331q0.10302-0.37826 4e-3 -0.69691-0.0905-0.31176-0.40631-0.55275-0.13535-0.10328-0.30037-0.18637-0.16503-0.0831-0.33742-0.10042-0.16336-0.0104-0.33195 0.0608-0.17546 0.0803-0.33383 0.28781-0.22722 0.29777-0.2386 0.57463-0.0183 0.28588 0.10237 0.52071 0.11375 0.24385 0.30966 0.43617 0.19804 0.20823 0.3785 0.34594zm-3.3164-0.0321q-7.2e-4 -0.18616 0.06-0.39678 0.0517-0.2175 0.23077-0.45211 0.3305-0.43312 0.66245-0.49392 0.33408-0.0449 0.72303 0.13767l0.0138-0.018q-0.0537-0.0981-0.1318-0.25762-0.0691-0.15268-0.0831-0.37754-0.0119-0.20895 0.0812-0.48059 0.084-0.27853 0.3388-0.6124 0.28919-0.37898 0.55156-0.5357 0.25334-0.16362 0.47606-0.19355 0.22273-0.0299 0.41055 0.042 0.18996 0.0879 0.32531 0.19113 0.31582 0.24099 0.40891 0.51191 0.0931 0.27092 0.0499 0.55206-0.0411 0.29704-0.15478 0.59576-0.1206 0.30773-0.23219 0.62235-0.12796 0.37351-0.20036 0.61809-0.0793 0.25359-0.0627 0.43761 0.0256 0.19091 0.15151 0.34405 0.12799 0.16906 0.39869 0.37562 0.21656 0.16525 0.40866 0.269t0.36449 0.12108q0.1814 0.0242 0.34785-0.063 0.16644-0.0872 0.33858-0.31273 0.22722-0.29777 0.27042-0.57891 0.0453-0.26523-0.18927-0.44425-0.1534-0.11705-0.32745-0.20703-0.16503-0.0831-0.23722-0.13818-0.12633-0.0964-0.14771-0.25549-0.0123-0.1522 0.11847-0.32364 0.22722-0.29777 0.39058-0.28733 0.16336 0.0104 0.33481 0.14126 0.19851 0.15148 0.31012 0.37942 0.11162 0.22794 0.11614 0.50266 7e-3 0.29064-0.1118 0.61428-0.12535 0.33267-0.38699 0.67556-0.31673 0.41507-0.63846 0.61217-0.3127 0.20398-0.62399 0.23772-0.30227 0.0406-0.58294-0.0593-0.27164-0.0931-0.51527-0.27897l-2.2468-1.7145q-0.26168-0.19968-0.41388-0.18732-0.1522 0.0123-0.26925 0.16575-0.0757 0.0993-0.12227 0.23508-0.0465 0.13582-0.0501 0.29016z"/>
    <path d="m158.38 187.65-0.88053 0.90109 5.5527 5.426 0.4601-0.47083q0.15865-0.16236 0.3245-0.39704 0.17397-0.22675 0.25033-0.56474 0.0684-0.32987-0.0253-0.80235-0.0936-0.45642-0.45389-1.0783l0.0873-0.0893 1.4856 1.4517-4.8231 4.9357-1.4856-1.4517 0.0873-0.0893q0.63005 0.34589 1.0964 0.42078 0.46658 0.0909 0.80272 7e-3 0.32821-0.076 0.55088-0.25518 0.23079-0.17121 0.38944-0.33357l0.4601-0.47084-5.5527-5.426-0.88053 0.90109-0.11365-0.11105 2.5543-2.614z"/>
    <path d="m154.16 191.93-0.66842 0.56308 5.0676 6.0157 0.66842-0.56307 0.10237 0.12153-1.415 1.192-2.8738-3.4115-0.0174 0.0146q0.0517 0.14942 0.0864 0.4021 0.0421 0.26137-7e-3 0.55519-0.0507 0.30982-0.21466 0.62605-0.16535 0.33223-0.52126 0.63205-0.57293 0.48263-1.1628 0.50466-0.59859 0.0293-1.1105-0.5783l-2.1353-2.5348-0.66842 0.56307-0.10238-0.12153 2.0834-1.755 0.10237 0.12153-0.66841 0.56307 2.362 2.8039q0.28519 0.33855 0.63294 0.41663 0.33907 0.0854 0.67762-0.19981 0.27778-0.234 0.42715-0.56759 0.14936-0.3336 0.15752-0.7115 8e-3 -0.37789-0.12762-0.7681-0.14446-0.3829-0.43696-0.73013l-1.6526-1.9618-0.66842 0.56307-0.10237-0.12153 2.0834-1.755z"/>
    <path d="m152.49 202.74q0.14697 0.20188 0.10953 0.43972-0.0399 0.25371-0.2418 0.40068-0.20188 0.14697-0.44641 0.10036-0.24702-0.0308-0.39399-0.23263-0.14697-0.20188-0.10704-0.45558 0.0374-0.23785 0.23931-0.38482 0.20188-0.14697 0.4489-0.11622 0.24453 0.0466 0.3915 0.24849zm-3.7325-6.3804-0.70656 0.51439 2.6788 3.6796 0.70657-0.51439 0.0935 0.12847-1.4957 1.0889-2.7724-3.8081-0.70656 0.51439-0.0935-0.12847 2.2023-1.6033z"/>
    <path d="m143.38 202.93q0.27706 0.44254 0.54199 0.75876 0.27096 0.32584 0.55262 0.49767 0.27205 0.17785 0.57764 0.17401 0.29597 2e-3 0.63268-0.20863 0.35596-0.22285 0.50855-0.49247t0.17643-0.55237q0.0215-0.20094-8e-3 -0.39703-0.0386-0.19007-0.13267-0.42581-0.094-0.23574-0.24946-0.52678-0.15902-0.27539-0.39392-0.65059-0.19876-0.31747-0.45767-0.62407t-0.56826-0.50126q-0.30334-0.18505-0.65226-0.20764-0.35855-0.0166-0.7626 0.2364-0.39444 0.24694-0.52896 0.54542t-0.0693 0.65937q0.0652 0.36089 0.28935 0.78302 0.23013 0.43174 0.54333 0.932zm2.6783-4.5559-0.74077 0.46378 4.174 6.6669 0.74077-0.46378 0.0843 0.13469-1.5681 0.98175-2.2406-3.5788-0.0192 0.012q0.10021 0.45952-0.0643 0.92406-0.16447 0.46453-0.69359 0.7958-0.41368 0.25899-0.89369 0.30508-0.47399 0.0557-0.9397-0.0679-0.45968-0.11394-0.87018-0.40598-0.41049-0.29205-0.68153-0.72497-0.27706-0.44253-0.35686-0.95501-0.0834-0.49683 0.0125-0.98537t0.36625-0.91225q0.26076-0.41769 0.68405-0.68271 0.3271-0.20478 0.63026-0.23389 0.28753-0.0327 0.53782 0.0249 0.24068 0.0636 0.42003 0.17895 0.17936 0.11536 0.29012 0.20671l0.0192-0.012-0.52401-0.83698 1.5489-0.96971z"/>
    <path d="m138.73 205.67 0.0202-0.0104q-0.0472-0.14163 0.19844-0.43359l0.60181-0.6917q0.25573-0.29714 0.30298-0.62761 0.0524-0.32036-0.12899-0.67377-0.0778-0.15146-0.19099-0.29747-0.11323-0.14601-0.2614-0.23581-0.14298-0.0797-0.32581-0.0879-0.19294-3e-3 -0.42518 0.1162-0.33321 0.17106-0.46259 0.4161-0.13948 0.25022-0.1316 0.5141-2e-3 0.26907 0.0919 0.52696 0.0892 0.27317 0.19287 0.47512zm-2.98-1.4557q0.0794-0.16836 0.2249-0.33235 0.14028-0.17408 0.40282-0.30886 0.48468-0.24881 0.81049-0.1609 0.32091 0.10319 0.59348 0.43533l0.0202-0.0104q-6e-3 -0.11161-8e-3 -0.28926 3e-3 -0.16756 0.0874-0.37658 0.0792-0.19374 0.28003-0.39892 0.19568-0.21529 0.56929-0.40708 0.4241-0.21772 0.72837-0.24633 0.29909-0.0387 0.51303 0.0301 0.21393 0.0688 0.35254 0.21453 0.1337 0.16102 0.21145 0.31248 0.18143 0.35342 0.14892 0.63803-0.0325 0.28462-0.19245 0.51983-0.16486 0.25049-0.39602 0.47123-0.24126 0.22592-0.47734 0.46194-0.27619 0.28213-0.44677 0.47177-0.18068 0.19482-0.24483 0.3681-0.059 0.18337-0.0112 0.37576 0.0428 0.20767 0.19833 0.5106 0.1244 0.24234 0.25318 0.41864 0.12879 0.1763 0.27695 0.2661 0.15335 0.0999 0.3411 0.0928 0.18775-7e-3 0.44019-0.13666 0.33321-0.17106 0.49315-0.40627 0.15503-0.21993 0.0203-0.48246-0.0881-0.17166-0.20654-0.32777-0.11323-0.14601-0.1547-0.22679-0.0726-0.14136-0.0234-0.29417 0.0543-0.14272 0.24617-0.2412 0.33322-0.17106 0.4762-0.0914 0.14299 0.0797 0.24148 0.27155 0.11404 0.22214 0.11673 0.47593 3e-3 0.25379-0.1114 0.50374-0.11901 0.26523-0.36518 0.50643-0.25627 0.24639-0.63998 0.44337-0.46448 0.23844-0.83971 0.27797-0.37004 0.0496-0.66557-0.0538-0.29034-0.0934-0.50071-0.30433-0.20518-0.20088-0.34514-0.47351l-1.2907-2.5143q-0.15032-0.29283-0.29304-0.34715-0.14271-0.0543-0.31437 0.0338-0.11107 0.057-0.21151 0.15961-0.10043 0.1026-0.17003 0.2404z"/>
    <path d="m129.69 206.59 1.6912-0.69217 0.43422 1.061 0.021-9e-3q9e-3 -0.24879 0.0548-0.52527 0.0401-0.26168 0.16657-0.52195 0.1203-0.24545 0.33992-0.45798 0.20482-0.21873 0.55147-0.36061 0.42018-0.17196 0.72149-0.1849 0.30131-0.0129 0.49136 0.0319 0.095 0.0224 0.21967 0.0573 0.11843 0.0496 0.24785 0.15611 0.12942 0.10647 0.26793 0.29506 0.1428 0.1991 0.27178 0.51424l1.221 2.9833 0.80885-0.33104 0.0602 0.14706-1.7122 0.70077-1.3199-3.2249q-0.11178-0.27312-0.23787-0.49132-0.1366-0.21391-0.31473-0.34949-0.17384-0.12508-0.3849-0.16134-0.20677-0.0258-0.47989 0.086-0.2311 0.0946-0.41681 0.33003-0.19622 0.23974-0.29263 0.57353-0.10691 0.3381-0.1016 0.74064 0.01 0.41304 0.19018 0.85423l0.99742 2.4371 0.79835-0.32674 0.0602 0.14706-1.7018 0.69647-1.7842-4.3594-0.80885 0.33104z"/>
    <path d="m129.17 206.89-0.83041 0.27248 2.4523 7.4737 0.83041-0.27248 0.0496 0.15098-1.7579 0.57681-2.5019-7.6247-0.83041 0.27248-0.0495-0.15098 2.5883-0.84929z"/>
    <path d="m127.32 212.44-0.84315 0.23006 0.38542 1.4126q-0.0966-9e-3 -0.17919-0.01-0.0826-9.9e-4 -0.26877 0.0498-0.16425 0.0448-0.27574 0.11053-0.1085 0.0767-0.1941 0.19414l-0.40932-1.5002-1.5549 0.42426-0.0418-0.1533 1.5549-0.42426-0.977-3.5806q-0.0837-0.3066-0.19219-0.48876-0.11649-0.16822-0.24492-0.25083-0.12544-0.0717-0.2439-0.0746-0.12942 2e-5 -0.23892 0.0299-0.38325 0.10457-0.5385 0.44106-0.16322 0.35043-0.13032 0.72971l-0.16824-0.0129q-6e-3 -0.15131 0.0119-0.34444t0.11543-0.39622q0.0896-0.18915 0.28168-0.34746 0.18912-0.16925 0.51762-0.25889 0.82125-0.22408 1.2364 4e-3 0.40419 0.2309 0.56255 0.81125l0.95011 3.4821 0.84315-0.23006z"/>
   </g>
  </g>
 </g>
</svg>
